<svg aria-hidden="true" style="width:0;height:0;position:absolute;overflow:hidden" xmlns="http://www.w3.org/2000/svg"><defs><symbol id="icon-game-controller" viewBox="0 0 32 32"><path d="M31.982 14.916A6.923 6.923 0 0 0 25.066 8a6.888 6.888 0 0 0-4.418 1.6h-3.601V2.933c0-1.029.837-1.867 1.867-1.867s1.867.837 1.867 1.867v1.333c0 1.47 1.196 2.667 2.667 2.667s2.667-1.196 2.667-2.667V-.001h-1.067v4.267c0 .882-.718 1.6-1.6 1.6s-1.6-.718-1.6-1.6V2.933C21.848 1.316 20.532 0 18.915 0s-2.933 1.316-2.933 2.933V9.6h-4.675a6.882 6.882 0 0 0-4.374-1.565 6.924 6.924 0 0 0-6.916 6.916c0 1.322.38 2.555 1.026 3.606l-.63 9.199A4.249 4.249 0 0 0 4.657 32a4.211 4.211 0 0 0 4.06-3.011l1.826-5.533a3.2 3.2 0 0 0 2.773 1.61 3.198 3.198 0 0 0 2.667-1.435 3.198 3.198 0 0 0 2.667 1.435 3.201 3.201 0 0 0 2.849-1.75l1.867 5.659A4.218 4.218 0 0 0 27.432 32c2.34 0 4.244-1.903 4.243-4.28l-.641-9.322a6.87 6.87 0 0 0 .95-3.483zm-21.333.703a.917.917 0 0 1-.915.915H8.515v1.219a.917.917 0 0 1-.915.915H6.229a.917.917 0 0 1-.915-.915v-1.219H4.095a.917.917 0 0 1-.915-.915v-1.371c0-.504.41-.915.915-.915h1.219v-1.219c0-.504.411-.915.915-.915H7.6c.504 0 .915.411.915.915v1.219h1.219c.504 0 .915.411.915.915v1.371zm14.4-5.752c1.029 0 1.867.837 1.867 1.867s-.837 1.867-1.867 1.867-1.867-.837-1.867-1.867.837-1.867 1.867-1.867zm-9.643 12.427-.001.003a2.135 2.135 0 0 1-4.223-.431c0-.526.198-1.002.515-1.374l.128-.129a2.125 2.125 0 0 1 1.079-.589 2.137 2.137 0 0 1 .839.001l.027.008c.129.028.254.066.373.116l.013.007c.122.052.238.115.347.188.016.011.029.025.045.036.093.067.183.138.265.218.042.042.077.091.115.136.047.054.096.107.137.166.065.094.119.195.169.299.007.015.017.028.023.043.109.247.174.521.183.809l.004.111c-.004.13-.014.258-.039.38zm.043-8.961a.532.532 0 1 1 0-1.066h1.6a.532.532 0 1 1 0 1.066h-1.6zM18.649 24a2.137 2.137 0 0 1-2.09-1.702l-.001-.003a2.075 2.075 0 0 1-.038-.38l.004-.114c.009-.289.074-.561.184-.808.006-.014.015-.026.021-.039.05-.106.106-.207.171-.303.038-.054.083-.101.125-.151s.081-.103.127-.15c.076-.075.16-.14.246-.203.021-.016.04-.035.062-.05.103-.069.214-.128.329-.179.011-.005.02-.012.03-.016.116-.049.237-.085.363-.113.013-.003.025-.009.037-.011.138-.029.281-.044.427-.044a2.155 2.155 0 0 1 .745.141c.041.015.082.028.121.046.103.046.203.1.297.162.041.027.078.059.118.089.056.042.11.086.162.133a1.927 1.927 0 0 1 .239.264c.038.05.078.098.111.15.03.046.053.097.079.146.024.045.051.087.072.133l.032.071c.1.247.158.515.158.797A2.136 2.136 0 0 1 18.647 24zm2.933-7.467c-1.029 0-1.867-.837-1.867-1.867s.837-1.867 1.867-1.867 1.867.837 1.867 1.867-.838 1.867-1.867 1.867zm3.467 2.934c-1.029 0-1.867-.837-1.867-1.867s.837-1.867 1.867-1.867 1.867.837 1.867 1.867-.838 1.867-1.867 1.867zm3.467-2.934c-1.029 0-1.867-.837-1.867-1.867s.837-1.867 1.867-1.867 1.867.837 1.867 1.867-.838 1.867-1.867 1.867z"/><path d="M29.316 14.667a.8.8 0 1 1-1.6 0 .8.8 0 0 1 1.6 0zM25.849 11.733a.8.8 0 1 1-1.6 0 .8.8 0 0 1 1.6 0zM22.382 14.667a.8.8 0 1 1-1.6 0 .8.8 0 0 1 1.6 0zM25.849 17.6a.8.8 0 1 1-1.6 0 .8.8 0 0 1 1.6 0zM7.449 12.267H6.382V14.4H4.249v1.067h2.133V17.6h1.067v-2.133h2.133V14.4H7.449z"/></symbol><symbol id="icon-tic-tac-toe" viewBox="0 0 32 32"><path d="M30.355 23.22a1.119 1.119 0 0 0 0-2.236h-7.079V10.923h7.079a1.119 1.119 0 0 0 0-2.236h-7.079V1.608a1.119 1.119 0 0 0-2.236 0v7.079H10.979v-7.08a1.119 1.119 0 0 0-2.236 0v7.08h-7.08a1.119 1.119 0 0 0 0 2.236h7.08v10.061h-7.08a1.119 1.119 0 0 0 0 2.236h7.08v7.079a1.118 1.118 0 1 0 2.236 0V23.22H21.04v7.08a1.118 1.118 0 1 0 2.236 0v-7.08h7.079zm-19.376-2.236V10.923H21.04v10.061H10.979z"/><path d="m1.941 7.475 1.771-1.772 1.771 1.772a1.114 1.114 0 0 0 1.58 0 1.117 1.117 0 0 0 0-1.581L5.292 4.122 7.063 2.35A1.117 1.117 0 1 0 5.482.769L3.711 2.541 1.94.769A1.117 1.117 0 1 0 .359 2.35L2.13 4.122.359 5.894a1.117 1.117 0 1 0 1.58 1.581zM17.59 15.954l1.771-1.772a1.117 1.117 0 1 0-1.581-1.581l-1.771 1.772-1.771-1.772a1.117 1.117 0 1 0-1.581 1.581l1.771 1.772-1.771 1.772a1.117 1.117 0 1 0 1.58 1.581l1.771-1.772 1.771 1.772a1.115 1.115 0 0 0 1.58 0 1.117 1.117 0 0 0 0-1.581l-1.771-1.772zM16.009 8.245c2.273 0 4.123-1.849 4.123-4.123S18.283-.001 16.009-.001c-2.273 0-4.123 1.849-4.123 4.123s1.849 4.123 4.123 4.123zm0-6.009c1.04 0 1.887.847 1.887 1.887s-.847 1.887-1.887 1.887-1.887-.847-1.887-1.887.847-1.887 1.887-1.887zM27.845 23.755c-2.273 0-4.123 1.849-4.123 4.123s1.849 4.123 4.123 4.123c2.273 0 4.123-1.849 4.123-4.123s-1.849-4.123-4.123-4.123zm0 6.009c-1.04 0-1.887-.847-1.887-1.887s.847-1.887 1.887-1.887 1.887.847 1.887 1.887-.847 1.887-1.887 1.887z"/></symbol><symbol id="icon-puzzle" viewBox="0 0 26 32"><path d="M16.077 21.965c-.358.87-1.331 1.331-2.253 1.075-.307-.102-.563-.205-.768-.41l-.41 1.741c-.102.461-.563.717-1.024.614l-2.56-.614c.256-.307.461-.768.461-1.229 0-.768-.512-1.485-1.229-1.741-1.075-.41-2.202.256-2.509 1.331a2.493 2.493 0 0 0 0 .87l-2.56-.614c-.461-.102-.717-.563-.614-1.024l.461-1.997a1.638 1.638 0 0 1-.87.102C1.127 19.915.359 18.84.615 17.816c.205-1.024 1.229-1.69 2.304-1.434.358.102.717.307.973.563l.461-1.997c.102-.461.563-.717 1.024-.614L8.142 15c-.256-.512-.256-1.126.051-1.69.307-.614.973-.973 1.69-.973 1.229.051 2.099 1.178 1.792 2.304-.102.41-.358.768-.666 1.024l2.765.666c.461.102.717.563.614 1.024l-.563 2.099c.307-.102.614-.102.922 0a1.871 1.871 0 0 1 1.331 2.509zM19.507 16.179c-.922.102-1.843-.512-2.048-1.434a2.493 2.493 0 0 1 0-.87l-1.741.512c-.461.102-.922-.102-1.024-.563l-.717-2.56c.41.051.87 0 1.28-.205.666-.358 1.024-1.178.922-1.946-.205-1.126-1.331-1.792-2.355-1.485-.307.102-.563.205-.768.41l-.717-2.56c-.102-.461.102-.922.563-1.024l1.946-.563c-.205-.205-.41-.461-.512-.717-.41-.973.154-2.202 1.178-2.509s2.099.256 2.355 1.28c.102.358.102.768 0 1.075l1.997-.563c.461-.102.922.102 1.024.563l.768 2.765c.307-.461.87-.768 1.485-.768.666 0 1.331.358 1.69.973a1.858 1.858 0 0 1-1.126 2.714c-.41.102-.819.102-1.229-.051l.768 2.765c.102.461-.102.922-.563 1.024l-2.099.614c.205.205.358.461.461.768.358 1.024-.358 2.202-1.536 2.355z"/></symbol><symbol id="icon-sword" viewBox="0 0 32 32"><path d="M32 0h-4.961L10.201 16.838 7.913 14.55l-.755-2.265c-.123-.372-.481-.598-.87-.55s-.682.354-.712.745l-.321 4.176 3.358 3.358-5.811 5.811H1.276c-.704 0-1.277.573-1.277 1.277v3.622c0 .704.573 1.277 1.277 1.277h3.622c.704 0 1.277-.573 1.277-1.277v-1.921l5.614-5.614 3.38 3.38 3.855-.643c.385-.063.664-.38.679-.769s-.237-.727-.615-.822l-1.851-.463-2.27-2.27L31.999 4.765V-.001zM5.053 30.723a.154.154 0 0 1-.154.154H1.277a.154.154 0 0 1-.154-.154v-3.622c0-.085.069-.154.154-.154h3.622c.085 0 .154.069.154.154v3.622zm1.122-3.508v-.114c0-.704-.573-1.277-1.277-1.277h-.509l5.018-5.018 1.588 1.588-4.82 4.821zm11.196-2.151-1.816.303-9.14-9.14.164-2.131.354 1.061 9.731 9.731.707.176zm-3.197-4.255-3.178-3.178L27.504 1.123h2.382L13.378 17.632a.56.56 0 0 0 .397.959.559.559 0 0 0 .397-.165L30.878 1.72v2.578L14.175 20.81z"/></symbol><symbol id="icon-close" viewBox="0 0 32 32"><path d="M32 3.223 28.777 0 16 12.777 3.223 0 0 3.223 12.777 16 0 28.777 3.223 32 16 19.223 28.777 32 32 28.777 19.223 16 32 3.223z"/></symbol></defs></svg>